<svg width="100" height="100" viewBox="0 0 100 100" fill="none" xmlns="http://www.w3.org/2000/svg">
<g id="django">
<path id="Vector" d="M46.2 0H62.5V74.9C54.1 76.5 48 77.1 41.3 77.1C21.4 77.1 11 68.2 11 51C11 34.5 22 23.8 39.1 23.8C41.7 23.8 43.8 24 46.2 24.6V0ZM46.8 38.2C44.9 37.6 43.3 37.4 41.3 37.4C33 37.4 28.3 42.4 28.3 51.3C28.3 59.9 32.9 64.7 41.2 64.7C43 64.7 44.5 64.6 46.8 64.3V38.2Z" fill="#7E7E7E"/>
<path id="Vector_2" d="M89.3004 25.8V63.3C89.3004 76.2 88.3004 82.4 85.5004 87.8C82.8004 92.9 79.4004 96.2 72.1004 99.8L56.9004 92.7C64.1004 89.3 67.6004 86.4 69.8004 81.9C72.1004 77.3 72.9004 71.9 72.9004 57.8V25.8H89.3004ZM71.3004 0H87.6004V16.6H71.3004V0Z" fill="#7E7E7E"/>
</g>
</svg>
