<svg width="100" height="100" viewBox="0 0 100 100" fill="none" xmlns="http://www.w3.org/2000/svg">
<g id="docker" clip-path="url(#clip0_540_440)">
<path id="Vector" d="M99 41.0999C98.7 40.8999 96.2 38.9999 90.9 38.9999C89.5 38.9999 88.1 39.0999 86.7 39.3999C85.7 32.2999 79.8 28.8999 79.5 28.6999L78.1 27.8999L77.2 29.2999C76 31.0999 75.2 33.0999 74.7 35.2999C73.7 39.2999 74.3 43.0999 76.4 46.3999C73.9 47.7999 69.9 48.0999 69.1 48.1999H3.09999C1.39999 47.9999 -8.33534e-06 49.3999 -8.33534e-06 51.0999C-0.100008 56.7999 0.899992 62.5999 2.89999 67.9999C5.19999 73.9999 8.49999 78.2999 12.9 80.9999C17.8 83.9999 25.8 85.6999 34.9 85.6999C39 85.6999 43.1 85.2999 47.1 84.5999C52.7 83.5999 58.1 81.5999 63 78.7999C67.1 76.3999 70.8 73.3999 73.9 69.8999C79.1 63.9999 82.2 57.3999 84.5 51.5999H85.4C91.1 51.5999 94.6 49.2999 96.6 47.3999C97.9 46.1999 98.9 44.6999 99.5 42.9999L99.9 41.7999L99 41.0999Z" fill="#7D7D7D"/>
<path id="Vector_2" d="M9.20039 46H18.0004C18.4004 46 18.8004 45.7 18.8004 45.2V37.3C18.8004 36.9 18.5004 36.5 18.0004 36.5H9.20039C8.80039 36.5 8.40039 36.8 8.40039 37.3V45.2C8.50039 45.7 8.80039 46 9.20039 46Z" fill="#7D7D7D"/>
<path id="Vector_3" d="M21.3996 46H30.1996C30.5996 46 30.9996 45.7 30.9996 45.2V37.3C30.9996 36.9 30.6996 36.5 30.1996 36.5H21.3996C20.9996 36.5 20.5996 36.8 20.5996 37.3V45.2C20.5996 45.7 20.9996 46 21.3996 46Z" fill="#7D7D7D"/>
<path id="Vector_4" d="M33.7004 46H42.5004C42.9004 46 43.3004 45.7 43.3004 45.2V37.3C43.3004 36.9 43.0004 36.5 42.5004 36.5H33.7004C33.3004 36.5 32.9004 36.8 32.9004 37.3V45.2C33.0004 45.7 33.3004 46 33.7004 46Z" fill="#7D7D7D"/>
<path id="Vector_5" d="M46.0002 46H54.8002C55.2002 46 55.6002 45.7 55.6002 45.2V37.3C55.6002 36.9 55.3002 36.5 54.8002 36.5H46.0002C45.6002 36.5 45.2002 36.8 45.2002 37.3V45.2C45.2002 45.7 45.5002 46 46.0002 46Z" fill="#7D7D7D"/>
<path id="Vector_6" d="M21.3996 34.7002H30.1996C30.5996 34.7002 30.9996 34.4002 30.9996 33.9002V26.0002C30.9996 25.6002 30.6996 25.2002 30.1996 25.2002H21.3996C20.9996 25.2002 20.5996 25.5002 20.5996 26.0002V33.9002C20.5996 34.4002 20.9996 34.7002 21.3996 34.7002Z" fill="#7D7D7D"/>
<path id="Vector_7" d="M33.7004 34.7002H42.5004C42.9004 34.7002 43.3004 34.4002 43.3004 33.9002V26.0002C43.3004 25.6002 43.0004 25.2002 42.5004 25.2002H33.7004C33.3004 25.2002 32.9004 25.5002 32.9004 26.0002V33.9002C33.0004 34.4002 33.3004 34.7002 33.7004 34.7002Z" fill="#7D7D7D"/>
<path id="Vector_8" d="M46.0002 34.7002H54.8002C55.2002 34.7002 55.6002 34.4002 55.6002 33.9002V26.0002C55.6002 25.6002 55.3002 25.2002 54.8002 25.2002H46.0002C45.6002 25.2002 45.2002 25.5002 45.2002 26.0002V33.9002C45.2002 34.4002 45.5002 34.7002 46.0002 34.7002Z" fill="#7D7D7D"/>
<path id="Vector_9" d="M46.0002 23.3999H54.8002C55.2002 23.3999 55.6002 23.0999 55.6002 22.5999V14.6999C55.6002 14.2999 55.3002 13.8999 54.8002 13.8999H46.0002C45.6002 13.8999 45.2002 14.1999 45.2002 14.6999V22.5999C45.2002 23.0999 45.5002 23.3999 46.0002 23.3999Z" fill="#7D7D7D"/>
<path id="Vector_10" d="M58.3 46H67.1C67.5 46 67.9 45.7 67.9 45.2V37.3C67.9 36.9 67.6 36.5 67.1 36.5H58.3C57.9 36.5 57.5 36.8 57.5 37.3V45.2C57.5 45.7 57.8 46 58.3 46Z" fill="#7D7D7D"/>
</g>
<defs>
<clipPath id="clip0_540_440">
<rect width="100" height="100" fill="white"/>
</clipPath>
</defs>
</svg>
