<svg width="100" height="100" viewBox="0 0 100 100" fill="none" xmlns="http://www.w3.org/2000/svg">
<g id="github">
<path id="Vector" d="M50 1C22.4 1 0 23.4 0 51C0 73.1 14.3 91.8 34.2 98.4C36.7 98.9 37.6 97.3 37.6 96C37.6 94.8 37.6 90.9 37.5 86.7C23.6 89.7 20.7 80.8 20.7 80.8C18.4 75 15.1 73.5 15.1 73.5C10.6 70.4 15.4 70.5 15.4 70.5C20.4 70.9 23.1 75.7 23.1 75.7C27.6 83.3 34.8 81.1 37.7 79.9C38.1 76.7 39.4 74.5 40.9 73.2C29.8 71.9 18.1 67.6 18.1 48.5C18.1 43 20.1 38.6 23.3 35.1C22.8 33.8 21.1 28.8 23.8 21.9C23.8 21.9 28 20.6 37.6 27C41.6 25.9 45.9 25.3 50.1 25.3C54.3 25.3 58.6 25.9 62.6 27C72.1 20.5 76.3 21.9 76.3 21.9C79 28.8 77.3 33.9 76.8 35.1C80 38.6 81.9 43.1 81.9 48.5C81.9 67.7 70.2 71.9 59.1 73.2C60.9 74.8 62.5 77.8 62.5 82.5C62.5 89.2 62.4 94.6 62.4 96.2C62.4 97.5 63.3 99.1 65.8 98.6C85.7 91.8 100 73.1 100 51C100 23.4 77.6 1 50 1Z" fill="#161616"/>
<path id="Vector_2" d="M18.6998 72.2001C18.5998 72.4001 18.1997 72.5001 17.7997 72.4001C17.3997 72.2001 17.1998 71.9001 17.3998 71.6001C17.4998 71.3001 17.8997 71.3001 18.2997 71.4001C18.5997 71.6001 18.8998 72.0001 18.6998 72.2001ZM21.1998 74.4001C20.9998 74.6001 20.4998 74.5001 20.1998 74.2001C19.8998 73.9001 19.7998 73.4001 20.0998 73.2001C20.2998 73.0001 20.7998 73.1001 21.0998 73.4001C21.3998 73.7001 21.3998 74.2001 21.1998 74.4001ZM22.8998 77.2001C22.5998 77.4001 22.0998 77.2001 21.7997 76.8001C21.4997 76.4001 21.4997 75.8001 21.7997 75.6001C22.0998 75.4001 22.5998 75.6001 22.8998 76.0001C23.1998 76.5001 23.1998 77.0001 22.8998 77.2001ZM25.6998 80.5001C25.3998 80.8001 24.7998 80.7001 24.3998 80.3001C23.9998 79.9001 23.7998 79.3001 24.0998 79.0001C24.3998 78.7001 24.9997 78.8001 25.3997 79.2001C25.8997 79.6001 25.9998 80.2001 25.6998 80.5001ZM29.3997 81.6001C29.2997 82.0001 28.6998 82.2001 28.1998 82.0001C27.5998 81.8001 27.2997 81.4001 27.3997 81.0001C27.4998 80.6001 28.0998 80.4001 28.6998 80.6001C29.1998 80.7001 29.4998 81.2001 29.3997 81.6001ZM33.5997 82.0001C33.5997 82.4001 33.0998 82.8001 32.4998 82.8001C31.8997 82.8001 31.3997 82.5001 31.3997 82.1001C31.3997 81.7001 31.8997 81.3001 32.4998 81.3001C33.0998 81.3001 33.5997 81.6001 33.5997 82.0001ZM37.6998 81.9001C37.7998 82.3001 37.3997 82.7001 36.7997 82.8001C36.1997 82.9001 35.6997 82.7001 35.5997 82.3001C35.4997 81.9001 35.8997 81.5001 36.4998 81.4001C37.0998 81.2001 37.6998 81.5001 37.6998 81.9001Z" fill="#161616"/>
</g>
</svg>
