<svg width="100" height="100" viewBox="0 0 100 100" fill="none" xmlns="http://www.w3.org/2000/svg">
<g id="nodejs">
<path id="Vector" d="M46.3 1.0998C48.8 -0.300195 52 -0.300195 54.5 1.0998C67 8.0998 79.4 15.1998 91.9 22.1998C94.2 23.4998 95.8 26.0998 95.8 28.7998V71.1998C95.8 73.9998 94.1 76.6998 91.6 77.9998C79.2 84.9998 66.8 91.9998 54.3 98.9998C51.8 100.4 48.5 100.3 46 98.7998C42.3 96.5998 38.5 94.4998 34.8 92.2998C34 91.7998 33.2 91.4998 32.6 90.6998C33.1 90.0998 33.9 89.9998 34.6 89.6998C36.2 89.1998 37.6 88.3998 39 87.5998C39.4 87.3998 39.8 87.3998 40.1 87.6998C43.3 89.4998 46.4 91.3998 49.6 93.1998C50.3 93.5998 51 93.0998 51.6 92.6998C64 85.8998 76.2 79.0998 88.3 72.1998C88.8 71.9998 89 71.4998 89 70.9998C89 56.9998 89 42.9998 89 29.0998C89.1 28.4998 88.7 27.9998 88.2 27.7998C75.8 20.7998 63.4 13.7998 51.1 6.8998C50.9 6.7998 50.6 6.6998 50.4 6.6998C50.1 6.6998 49.9 6.7998 49.7 6.8998C37.3 13.8998 25 20.8998 12.6 27.7998C12 27.9998 11.7 28.4998 11.7 28.9998C11.7 42.9998 11.7 56.9998 11.7 70.8998C11.7 71.0998 11.7 71.3998 11.9 71.5998C12 71.7998 12.2 71.9998 12.4 72.0998C15.7 73.9998 19 75.7998 22.3 77.6998C24.2 78.6998 26.4 79.2998 28.5 78.4998C30.3 77.8998 31.6 75.9998 31.5 74.0998C31.5 60.1998 31.5 46.2998 31.5 32.3998C31.5 31.7998 32 31.2998 32.6 31.2998C34.2 31.2998 35.8 31.2998 37.4 31.2998C38.1 31.2998 38.5 31.8998 38.4 32.5998C38.4 46.5998 38.4 60.5998 38.4 74.5998C38.4 78.2998 36.9 82.3998 33.4 84.1998C29.2 86.3998 23.9 85.8998 19.7 83.7998C16.1 81.9998 12.6 79.7998 9 77.8998C6.7 76.6998 5 73.9998 5 71.1998V28.7998C5 25.9998 6.6 23.3998 9 22.0998C21.4 15.0998 33.9 8.0998 46.3 1.0998Z" fill="#A8A8A8"/>
<path id="Vector_2" d="M57.1001 30.4C62.5001 30.1 68.3001 30.2 73.2001 32.9C77.0001 34.9 79.1001 39.2 79.1001 43.4C79.0001 44 78.4001 44.3 77.9001 44.2C76.3001 44.2 74.8001 44.2 73.2001 44.2C72.5001 44.2 72.1001 43.6 72.1001 43C71.6001 41 70.6001 39 68.7001 38C65.8001 36.5 62.4001 36.6 59.3001 36.7C57.0001 36.8 54.5001 37 52.6001 38.4C51.1001 39.4 50.6001 41.5 51.2001 43.2C51.7001 44.4 53.1001 44.8 54.2001 45.1C60.7001 46.8 67.6001 46.6 74.0001 48.9C76.7001 49.8 79.2001 51.6 80.2001 54.4C81.4001 58.1 80.9001 62.6 78.2001 65.6C76.1001 68.1 72.9001 69.4 69.8001 70.1C65.5001 71 61.2001 71 57.0001 70.6C53.0001 70.1 48.9001 69.1 45.9001 66.4C43.3001 64.1 42.0001 60.6 42.1001 57.2C42.1001 56.6 42.7001 56.2 43.3001 56.3C44.9001 56.3 46.5001 56.3 48.0001 56.3C48.6001 56.3 49.1001 56.8 49.1001 57.4C49.4001 59.3 50.1001 61.3 51.8001 62.5C55.0001 64.6 59.1001 64.4 62.7001 64.5C65.8001 64.4 69.2001 64.3 71.7001 62.3C73.0001 61.1 73.4001 59.2 73.0001 57.6C72.6001 56.2 71.2001 55.6 69.9001 55.1C63.5001 53.1 56.5001 53.8 50.1001 51.5C47.5001 50.6 45.0001 48.9 44.0001 46.2C42.6001 42.4 43.2001 37.8 46.2001 34.9C49.1001 31.9 53.2001 30.8 57.1001 30.4Z" fill="#A8A8A8"/>
</g>
</svg>
