<svg width="100" height="100" viewBox="0 0 100 100" fill="none" xmlns="http://www.w3.org/2000/svg">
<g id="python" clip-path="url(#clip0_540_452)">
<path id="Vector" d="M49.6 0C24.3 0 25.8 11 25.8 11V22.4H50V25.8H16.2C16.2 25.8 0 24 0 49.6C0 75.2 14.2 74.3 14.2 74.3H22.7V62.4C22.7 62.4 22.2 48.2 36.7 48.2H60.7C60.7 48.2 74.2 48.4 74.2 35.2V13.3C74.1 13.3 76.2 0 49.6 0ZM36.3 7.7C36.9 7.7 37.4 7.8 38 8C38.5 8.2 39 8.5 39.4 8.9C39.8 9.3 40.1 9.8 40.3 10.3C40.5 10.8 40.6 11.4 40.6 12C40.6 12.6 40.5 13.1 40.3 13.7C40.1 14.2 39.8 14.7 39.4 15.1C39 15.5 38.5 15.8 38 16C37.5 16.2 36.9 16.3 36.3 16.3C35.7 16.3 35.2 16.2 34.6 16C34 15.8 33.6 15.5 33.2 15.1C32.8 14.7 32.5 14.2 32.3 13.7C32.1 13.2 32 12.6 32 12C32 11.4 32.1 10.9 32.3 10.3C32.5 9.8 32.8 9.3 33.2 8.9C33.6 8.5 34.1 8.2 34.6 8C35.1 7.8 35.7 7.7 36.3 7.7Z" fill="url(#paint0_linear_540_452)"/>
<path id="Vector_2" d="M50.4002 99.5002C75.8002 99.5002 74.2002 88.5002 74.2002 88.5002V77.1002H49.9002V73.7002H83.7002C83.7002 73.7002 99.9002 75.5002 99.9002 49.9002C99.9002 24.3002 85.7002 25.2002 85.7002 25.2002H77.2002V37.0002C77.2002 37.0002 77.7002 51.2002 63.2002 51.2002H39.2002C39.2002 51.2002 25.7002 51.0002 25.7002 64.2002V86.1002C25.9002 86.2002 23.8002 99.5002 50.4002 99.5002ZM63.7002 91.8002C63.1002 91.8002 62.6002 91.7002 62.0002 91.5002C61.5002 91.3002 61.0002 91.0002 60.6002 90.6002C60.2002 90.2002 59.9002 89.7002 59.7002 89.2002C59.5002 88.7002 59.4002 88.1002 59.4002 87.5002C59.4002 86.9002 59.5002 86.4002 59.7002 85.8002C59.9002 85.3002 60.2002 84.8002 60.6002 84.4002C61.0002 84.0002 61.5002 83.7002 62.0002 83.5002C62.5002 83.3002 63.1002 83.2002 63.7002 83.2002C64.3002 83.2002 64.8002 83.3002 65.4002 83.5002C65.9002 83.7002 66.4002 84.0002 66.8002 84.4002C67.2002 84.8002 67.5002 85.3002 67.7002 85.8002C67.9002 86.3002 68.0002 86.9002 68.0002 87.5002C68.0002 88.1002 67.9002 88.6002 67.7002 89.2002C67.5002 89.7002 67.2002 90.2002 66.8002 90.6002C66.4002 91.0002 65.9002 91.3002 65.4002 91.5002C64.9002 91.7002 64.3002 91.8002 63.7002 91.8002Z" fill="url(#paint1_linear_540_452)"/>
</g>
<defs>
<linearGradient id="paint0_linear_540_452" x1="9.3078" y1="9.2533" x2="58.8647" y2="58.3159" gradientUnits="userSpaceOnUse">
<stop stop-color="#6F6F6F"/>
<stop offset="1" stop-color="#5E5E5E"/>
</linearGradient>
<linearGradient id="paint1_linear_540_452" x1="39.7457" y1="40.7524" x2="92.9642" y2="91.0615" gradientUnits="userSpaceOnUse">
<stop stop-color="#DADADA"/>
<stop offset="1" stop-color="#C5C5C5"/>
</linearGradient>
<clipPath id="clip0_540_452">
<rect width="100" height="100" fill="white"/>
</clipPath>
</defs>
</svg>
