<svg width="45" height="45" viewBox="0 0 45 45" fill="none" xmlns="http://www.w3.org/2000/svg">
<path d="M25.6866 17.9152L23.8354 19.7708L29.0514 24.9991L30.9025 23.1435L25.6866 17.9152Z" fill="white"/>
<path d="M25.7262 11.0594L23.6636 13.127L28.908 18.3838L30.9706 16.3163L25.7262 11.0594Z" fill="white"/>
<path d="M25.6823 23.5286L20.3071 28.9165L22.2984 30.9125L27.6736 25.5247L25.6823 23.5286Z" fill="white"/>
<path d="M23.2794 14.3864L17.9375 19.741L19.8884 21.6965L25.2303 16.342L23.2794 14.3864Z" fill="white"/>
<path d="M37.0377 16.1337L31.3617 21.8231L29.3722 19.829L32.9277 16.2617L32.9647 16.2987L32.9311 16.2583L34.7559 14.4326L30.9551 10.6126L29.1303 12.4418L27.1812 10.4846L29.0059 8.65552L29.0731 8.59151C29.496 8.16109 30.051 7.88558 30.6488 7.80922C31.2467 7.73286 31.8528 7.86007 32.3699 8.17045L37.2561 13.0683C37.5357 13.5407 37.6646 14.0874 37.6255 14.6353C37.5865 15.1831 37.3814 15.7059 37.0377 16.1337Z" fill="white"/>
<path d="M32.3795 23.506L27.0376 28.8606L29.0408 30.8686L34.3827 25.514L32.3795 23.506Z" fill="white"/>
<path d="M37.3203 32.2354L32.2996 37.2546C31.8044 37.517 31.2387 37.6143 30.6846 37.5326C30.1304 37.4508 29.6167 37.1941 29.218 36.7998C29.1695 36.7517 29.1235 36.7011 29.0802 36.6482L29.0533 36.6752L23.7705 31.3664L25.7264 29.4025L31.026 34.7147L34.8872 30.8442L32.9348 28.8905L34.7864 27.0344L36.7389 28.9882L36.7154 29.0118C36.7658 29.0555 36.8162 29.0993 36.8666 29.1499C37.2588 29.5496 37.5141 30.0639 37.5956 30.6185C37.6771 31.1731 37.5807 31.7393 37.3203 32.2354Z" fill="white"/>
<path d="M16.5333 14.3567L11.1582 19.7446L13.1685 21.7597L18.5437 16.3718L16.5333 14.3567Z" fill="white"/>
<path d="M16.5777 20.228L14.6196 22.1907L19.8641 27.4476L21.8221 25.4849L16.5777 20.228Z" fill="white"/>
<path d="M41.9811 21.6752L41.0166 20.7185L41.067 20.7455C41.4607 20.9573 41.7798 21.2854 41.9811 21.6853V21.6752Z" fill="white"/>
<path d="M38.2275 23.585L38.1872 23.6255C38.1603 23.5749 38.1368 23.5244 38.1133 23.4739L38.2275 23.585Z" fill="white"/>
<path d="M21.9253 38.0022L21.8211 38.1066L21.7842 38.0696L21.9253 38.0022Z" fill="white"/>
<path d="M16.6367 26.9906L14.6406 28.9915L19.8565 34.2198L21.8526 32.219L16.6367 26.9906Z" fill="white"/>
<path d="M26.5596 8.32883L22.2177 12.6709L20.2014 10.6498L23.5619 7.28121C23.6606 7.25063 23.7572 7.2135 23.8509 7.17005C24.0688 7.06319 24.2675 6.92091 24.439 6.74898C24.6866 6.51324 24.8734 6.22079 24.9835 5.89674C25.0676 5.62542 25.097 5.34002 25.0698 5.0572C25.0427 4.77439 24.9597 4.49982 24.8255 4.24953C24.7267 4.06651 24.6022 3.89862 24.4559 3.75098C24.0545 3.34945 23.5106 3.12394 22.9436 3.12394C22.3766 3.12394 21.8327 3.34945 21.4313 3.75098L20.9273 4.25626L21.0146 4.34048C20.824 4.73915 20.7617 5.18736 20.8363 5.62308C20.911 6.05881 21.1189 6.4605 21.4313 6.77256L21.8817 7.197L19.8653 9.21812C19.6828 9.08085 19.5099 8.93116 19.3478 8.77011C18.6782 8.10457 18.2177 7.2571 18.023 6.33226C17.8283 5.40742 17.908 4.44568 18.2523 3.56571C18.4326 3.10633 18.6831 2.67789 18.9949 2.29577C19.1006 2.16665 19.2128 2.04298 19.331 1.92524C19.8398 1.41409 20.4564 1.02387 21.1356 0.7833C22.1859 0.4111 23.3317 0.4111 24.3819 0.7833C24.9605 0.990949 25.4934 1.30896 25.9513 1.71975L26.3646 2.13072C26.7495 2.56402 27.0525 3.06399 27.2586 3.60614C27.6763 4.68689 27.6942 5.88185 27.309 6.97468C27.1358 7.46457 26.8825 7.9222 26.5596 8.32883Z" fill="white"/>
<path d="M18.5204 34.6978L16.5646 36.6616L16.5108 36.6077C16.0882 37.0374 15.5339 37.3124 14.9367 37.3887C14.3396 37.4651 13.7342 37.3383 13.2175 37.0288L8.39171 32.1949C8.08207 31.6766 7.95515 31.0691 8.03133 30.4698C8.10751 29.8705 8.38237 29.3143 8.81178 28.8904L14.1517 23.5513L16.1042 25.505L10.7609 30.8475L14.5718 34.6641L16.5276 32.7036L18.5204 34.6978Z" fill="white"/>
<path d="M26.365 2.14114L25.9517 1.72681C26.0256 1.79081 26.0962 1.85818 26.1634 1.92555C26.2306 1.99292 26.3012 2.06703 26.365 2.14114Z" fill="white"/>
<path d="M26.1661 8.78034C26.0487 8.89882 25.9253 9.01124 25.7965 9.11719C25.771 9.13926 25.7441 9.15952 25.7158 9.17783L26.5593 8.33569C26.4373 8.49169 26.306 8.64018 26.1661 8.78034Z" fill="white"/>
<path d="M43.4896 26.051C43.3514 26.1841 43.2056 26.309 43.0527 26.4249C42.6671 26.7348 42.235 26.9815 41.7724 27.1559C40.9054 27.482 39.9632 27.5513 39.058 27.3554C38.1529 27.1595 37.3231 26.7067 36.6677 26.051C36.52 25.9027 36.382 25.7452 36.2543 25.5794L36.1804 25.6535L32.8198 22.285L34.8832 20.2167L38.1194 23.4606C38.1429 23.5111 38.1665 23.5616 38.1934 23.6122L38.2337 23.5717L39.2419 24.5823C39.5451 24.7145 39.875 24.774 40.2052 24.7558C40.5354 24.7377 40.8569 24.6425 41.1439 24.4779L41.1977 24.5318L41.5942 24.1343C41.8295 23.8972 42.0062 23.6083 42.1101 23.2905C42.214 22.9728 42.2423 22.635 42.1926 22.3044C42.143 21.9737 42.0168 21.6593 41.8242 21.3863C41.6316 21.1132 41.3779 20.8892 41.0834 20.7321L41.033 20.7051C40.7556 20.5677 40.4516 20.4925 40.1423 20.485C39.8329 20.4774 39.5256 20.5376 39.2419 20.6613C38.9904 20.766 38.762 20.9194 38.5697 21.1127C38.4383 21.2463 38.3252 21.397 38.2337 21.5607L36.2946 19.6171L36.4022 19.4857L36.96 18.9299C37.3889 18.5607 37.8807 18.272 38.4118 18.0777C39.5049 17.6668 40.7095 17.6668 41.8026 18.0777C42.1764 18.2188 42.531 18.4067 42.8578 18.6368L44.0475 19.8327C44.3042 20.2095 44.5057 20.6213 44.6456 21.0554C44.9359 21.9129 44.9815 22.8346 44.7773 23.7167C44.573 24.5987 44.1271 25.406 43.4896 26.0476V26.051Z" fill="white"/>
<path d="M36.9436 18.9331L36.3857 19.4889C36.4698 19.3879 36.5571 19.2935 36.6512 19.1992C36.7437 19.1052 36.8413 19.0164 36.9436 18.9331Z" fill="white"/>
<path d="M4.47083 20.7486C4.10298 20.9468 3.80145 21.249 3.6038 21.6177C3.3872 22.0232 3.30652 22.4878 3.3737 22.9427C3.44087 23.3977 3.65234 23.8189 3.97682 24.1441C4.14584 24.3127 4.34105 24.4526 4.55484 24.5585C4.95354 24.7518 5.40243 24.8158 5.83909 24.7415C6.27576 24.6673 6.67848 24.4585 6.99125 24.1441C7.14206 23.9896 7.27097 23.8151 7.37435 23.6254L9.39069 25.6465C9.25798 25.8089 9.11544 25.9631 8.96389 26.108C8.72362 26.3483 8.45894 26.5628 8.17416 26.748C7.8389 26.9712 7.47633 27.1501 7.09542 27.2802C6.00012 27.6533 4.80762 27.6198 3.73486 27.1859C3.39741 27.05 3.07707 26.8748 2.78047 26.6638C2.71998 26.6234 2.65613 26.5762 2.59564 26.5291C2.42974 26.3992 2.27257 26.2586 2.12516 26.108C1.92708 25.9116 1.74607 25.6986 1.58411 25.4713C1.14785 24.8472 0.86477 24.1286 0.757905 23.3741C0.65104 22.6196 0.72341 21.8505 0.969125 21.1293C1.20825 20.4284 1.6036 19.7913 2.12516 19.2665C2.27648 19.1173 2.43698 18.9778 2.60572 18.8488C2.9804 18.5629 3.39626 18.3357 3.83904 18.1751C4.88424 17.7767 6.03472 17.7529 7.09542 18.1077C7.66395 18.3009 8.19078 18.6004 8.648 18.9903L9.23274 19.573C9.27643 19.6269 9.32011 19.6774 9.36044 19.7313L12.6706 23.0494L10.6744 25.0503L7.43148 21.7592C7.42115 21.7408 7.41217 21.7217 7.40459 21.7019H7.38779L6.35274 20.6644C6.05816 20.5328 5.73771 20.4695 5.41533 20.4795C5.09294 20.4894 4.77696 20.5722 4.49099 20.7217L4.47083 20.7486Z" fill="white"/>
<path d="M9.24294 19.573L8.6582 18.9902C8.76238 19.0778 8.8632 19.1688 8.96401 19.2665C9.06483 19.3641 9.15557 19.4686 9.24294 19.573Z" fill="white"/>
<path d="M26.1901 43.3888C25.5521 44.031 24.7469 44.4805 23.8662 44.686C22.9856 44.8915 22.0651 44.8447 21.2097 44.5509C20.779 44.4049 20.3715 44.1973 19.9999 43.9345L18.8103 42.7386C18.5784 42.4131 18.3897 42.0587 18.2491 41.6843C17.8504 40.6292 17.8314 39.4677 18.1953 38.4C18.3886 37.8231 18.691 37.289 19.0859 36.8269L19.6404 36.2711C19.7042 36.2172 19.7681 36.1633 19.8319 36.1161L23.1925 32.7476L25.2088 34.7687L21.9423 38.0429L21.8012 38.1103L21.8382 38.1473L20.83 39.1579C20.7031 39.452 20.6439 39.7709 20.6567 40.091C20.6695 40.4111 20.754 40.7243 20.9039 41.0072C21.0026 41.1961 21.1295 41.3688 21.2803 41.5192C21.4784 41.7193 21.7139 41.878 21.9735 41.9864C22.233 42.0947 22.5114 42.1505 22.7926 42.1505C23.0737 42.1505 23.3521 42.0947 23.6116 41.9864C23.8712 41.878 24.1068 41.7193 24.3048 41.5192C24.4556 41.3647 24.5845 41.1902 24.6879 41.0005C24.8998 40.5972 24.9769 40.1363 24.9079 39.6858C24.839 39.2352 24.6276 38.8188 24.3048 38.4977C24.1555 38.3457 23.9831 38.2183 23.794 38.1204L25.7431 36.1666L25.9078 36.3014L26.4925 36.8875C26.8829 37.3448 27.1818 37.8732 27.373 38.4438C27.7337 39.5085 27.7147 40.6657 27.3192 41.718C27.1582 42.1615 26.9316 42.5782 26.6471 42.9542C26.5048 43.1093 26.3521 43.2545 26.1901 43.3888Z" fill="white"/>
<path d="M19.6434 36.271L19.0889 36.8268C19.1729 36.7291 19.2603 36.6314 19.3544 36.5371C19.4484 36.4428 19.5459 36.3518 19.6434 36.271Z" fill="white"/>
<path d="M20.0026 43.9346C19.7704 43.7727 19.5533 43.5901 19.354 43.3889C19.2047 43.2423 19.0665 43.0846 18.9407 42.9173C18.8951 42.86 18.8525 42.8004 18.813 42.7388L20.0026 43.9346Z" fill="white"/>
<path d="M26.469 36.8437L25.8843 36.2576C25.9909 36.3454 26.093 36.4387 26.1901 36.5372C26.2883 36.6344 26.3814 36.7367 26.469 36.8437Z" fill="white"/>
<path d="M21.9253 38.0022L21.8211 38.1066L21.7842 38.0696L21.9253 38.0022Z" fill="white"/>
<path d="M36.836 16.3628L36.7553 16.4403L36.6108 16.565L37.0376 16.1338C36.976 16.2149 36.9086 16.2914 36.836 16.3628Z" fill="white"/>
<path d="M33.2136 9.00615L32.3701 8.16064C32.5408 8.26671 32.6987 8.39218 32.8406 8.53455L32.9313 8.62887C33.037 8.74546 33.1316 8.87177 33.2136 9.00615Z" fill="white"/>
<path d="M29.1401 12.4653L29.1199 12.4451C29.087 12.4177 29.0556 12.3884 29.0259 12.3575L28.9385 12.2463L29.1401 12.4653Z" fill="white"/>
<path d="M14.6426 10.5519L10.7914 14.4223L12.7338 16.3694L10.7746 18.3298L8.8356 16.3828L8.88265 16.3357C8.80032 16.2706 8.72178 16.2009 8.64741 16.1268C8.24077 15.7129 7.98105 15.1765 7.90819 14.6001C7.83533 14.0238 7.95337 13.4394 8.24414 12.9368L13.0901 8.07264C13.5907 7.78158 14.1728 7.66317 14.7471 7.73558C15.3213 7.80798 15.856 8.06721 16.2692 8.4735C16.344 8.54833 16.4136 8.62824 16.4775 8.71267V8.69582L21.7469 13.9609L19.8952 15.8169L14.6426 10.5519Z" fill="white"/>
</svg>
