<svg width="45" height="45" viewBox="0 0 45 45" fill="none" xmlns="http://www.w3.org/2000/svg">
<path d="M24.9771 17.4111L23.126 19.2666L28.3419 24.4949L30.193 22.6394L24.9771 17.4111Z" fill="#0066FF"/>
<path d="M25.0167 10.5551L22.9541 12.6226L28.1985 17.8794L30.2611 15.8119L25.0167 10.5551Z" fill="#0066FF"/>
<path d="M24.9728 23.0242L19.5977 28.4121L21.589 30.4082L26.9641 25.0203L24.9728 23.0242Z" fill="#0066FF"/>
<path d="M22.5694 13.8823L17.2275 19.2368L19.1785 21.1924L24.5203 15.8378L22.5694 13.8823Z" fill="#0066FF"/>
<path d="M36.3272 15.6293L30.6512 21.3187L28.6618 19.3246L32.2173 15.7573L32.2542 15.7943L32.2206 15.7539L34.0454 13.9282L30.2446 10.1082L28.4198 11.9374L26.4707 9.98024L28.2955 8.15112L28.3627 8.08712C28.7856 7.65669 29.3405 7.38118 29.9384 7.30482C30.5362 7.22846 31.1423 7.35568 31.6594 7.66605L36.5457 12.5639C36.8252 13.0363 36.9541 13.583 36.9151 14.1309C36.8761 14.6787 36.6709 15.2015 36.3272 15.6293Z" fill="#0066FF"/>
<path d="M31.67 23.0019L26.3281 28.3564L28.3313 30.3644L33.6732 25.0099L31.67 23.0019Z" fill="#0066FF"/>
<path d="M36.6103 31.7313L31.5896 36.7504C31.0945 37.0128 30.5287 37.1102 29.9746 37.0284C29.4205 36.9466 28.9067 36.69 28.508 36.2957C28.4595 36.2475 28.4135 36.1969 28.3702 36.1441L28.3433 36.171L23.0605 30.8622L25.0164 28.8984L30.316 34.2105L34.1773 30.3401L32.2248 28.3863L34.0765 26.5303L36.0289 28.484L36.0054 28.5076C36.0558 28.5514 36.1062 28.5952 36.1566 28.6457C36.5488 29.0454 36.8041 29.5597 36.8856 30.1143C36.9672 30.6689 36.8708 31.2352 36.6103 31.7313Z" fill="#0066FF"/>
<path d="M15.8234 13.8523L10.4482 19.2402L12.4586 21.2553L17.8337 15.8674L15.8234 13.8523Z" fill="#0066FF"/>
<path d="M15.8672 19.7238L13.9092 21.6865L19.1536 26.9434L21.1117 24.9807L15.8672 19.7238Z" fill="#0066FF"/>
<path d="M41.2711 21.171L40.3066 20.2144L40.357 20.2413C40.7507 20.4532 41.0698 20.7813 41.2711 21.1811V21.171Z" fill="#0066FF"/>
<path d="M37.5176 23.0809L37.4773 23.1213C37.4504 23.0708 37.4268 23.0203 37.4033 22.9697L37.5176 23.0809Z" fill="#0066FF"/>
<path d="M21.2154 37.498L21.1112 37.6025L21.0742 37.5654L21.2154 37.498Z" fill="#0066FF"/>
<path d="M15.9267 26.4865L13.9307 28.4873L19.1466 33.7156L21.1427 31.7148L15.9267 26.4865Z" fill="#0066FF"/>
<path d="M25.8496 7.82468L21.5078 12.1667L19.4914 10.1456L22.852 6.77706C22.9507 6.74648 23.0472 6.70935 23.141 6.6659C23.3589 6.55904 23.5576 6.41676 23.7291 6.24483C23.9767 6.00909 24.1635 5.71664 24.2735 5.39259C24.3576 5.12127 24.387 4.83587 24.3599 4.55305C24.3328 4.27024 24.2497 3.99567 24.1156 3.74538C24.0167 3.56236 23.8922 3.39447 23.7459 3.24683C23.3446 2.8453 22.8007 2.61979 22.2336 2.61979C21.6666 2.61979 21.1227 2.8453 20.7214 3.24683L20.2173 3.75211L20.3047 3.83633C20.114 4.235 20.0517 4.68321 20.1264 5.11893C20.201 5.55466 20.409 5.95635 20.7214 6.26841L21.1717 6.69285L19.1554 8.71397C18.9728 8.5767 18.7999 8.427 18.6378 8.26596C17.9683 7.60042 17.5077 6.75295 17.313 5.82811C17.1183 4.90327 17.198 3.94153 17.5423 3.06156C17.7226 2.60218 17.9732 2.17374 18.285 1.79162C18.3907 1.6625 18.5028 1.53883 18.621 1.42108C19.1298 0.909943 19.7465 0.519716 20.4257 0.27915C21.4759 -0.09305 22.6217 -0.09305 23.672 0.27915C24.2505 0.486799 24.7834 0.804806 25.2413 1.2156L25.6547 1.62657C26.0396 2.05987 26.3425 2.55984 26.5486 3.10199C26.9663 4.18274 26.9842 5.3777 26.599 6.47053C26.4258 6.96042 26.1725 7.41805 25.8496 7.82468Z" fill="#0066FF"/>
<path d="M17.8105 34.1939L15.8546 36.1577L15.8009 36.1038C15.3782 36.5335 14.8239 36.8085 14.2268 36.8848C13.6297 36.9612 13.0242 36.8344 12.5075 36.5249L7.68175 31.691C7.37211 31.1727 7.24519 30.5652 7.32137 29.9659C7.39755 29.3666 7.67241 28.8104 8.10182 28.3865L13.4417 23.0474L15.3942 25.0011L10.0509 30.3436L13.8618 34.1602L15.8177 32.1997L17.8105 34.1939Z" fill="#0066FF"/>
<path d="M25.6546 1.63699L25.2412 1.22266C25.3151 1.28666 25.3857 1.35403 25.4529 1.4214C25.5201 1.48877 25.5907 1.56288 25.6546 1.63699Z" fill="#0066FF"/>
<path d="M25.4562 8.27619C25.3387 8.39466 25.2153 8.50709 25.0865 8.61304C25.0611 8.63511 25.0341 8.65537 25.0059 8.67368L25.8494 7.83154C25.7273 7.98754 25.596 8.13602 25.4562 8.27619Z" fill="#0066FF"/>
<path d="M42.7792 25.5466C42.641 25.6797 42.4951 25.8046 42.3423 25.9205C41.9567 26.2304 41.5245 26.4771 41.0619 26.6515C40.195 26.9776 39.2527 27.0469 38.3476 26.851C37.4424 26.6551 36.6126 26.2023 35.9572 25.5466C35.8096 25.3983 35.6715 25.2408 35.5439 25.075L35.4699 25.1491L32.1094 21.7806L34.1728 19.7123L37.409 22.9562C37.4325 23.0067 37.456 23.0572 37.4829 23.1078L37.5232 23.0673L38.5314 24.0779C38.8347 24.2101 39.1646 24.2696 39.4948 24.2514C39.825 24.2333 40.1464 24.1381 40.4335 23.9735L40.4872 24.0274L40.8838 23.6299C41.1191 23.3928 41.2958 23.1039 41.3997 22.7861C41.5036 22.4684 41.5318 22.1307 41.4822 21.8C41.4326 21.4693 41.3064 21.1549 41.1138 20.8819C40.9212 20.6088 40.6675 20.3848 40.373 20.2277L40.3226 20.2007C40.0452 20.0633 39.7412 19.9881 39.4318 19.9806C39.1225 19.973 38.8152 20.0332 38.5314 20.1569C38.2799 20.2616 38.0515 20.415 37.8593 20.6083C37.7278 20.7419 37.6148 20.8926 37.5232 21.0563L35.5842 19.1127L35.6917 18.9813L36.2496 18.4255C36.6785 18.0563 37.1703 17.7676 37.7013 17.5733C38.7945 17.1624 39.999 17.1624 41.0921 17.5733C41.466 17.7144 41.8205 17.9023 42.1474 18.1324L43.337 19.3283C43.5938 19.7051 43.7952 20.1169 43.9352 20.551C44.2255 21.4085 44.2711 22.3302 44.0668 23.2123C43.8626 24.0943 43.4166 24.9016 42.7792 25.5432V25.5466Z" fill="#0066FF"/>
<path d="M36.2336 18.4287L35.6758 18.9845C35.7598 18.8835 35.8472 18.7891 35.9413 18.6948C36.0338 18.6008 36.1314 18.512 36.2336 18.4287Z" fill="#0066FF"/>
<path d="M3.76087 20.2447C3.39302 20.4429 3.09149 20.7451 2.89384 21.1138C2.67724 21.5193 2.59656 21.9839 2.66373 22.4388C2.73091 22.8938 2.94238 23.315 3.26686 23.6402C3.43588 23.8088 3.63109 23.9487 3.84488 24.0546C4.24357 24.2479 4.69247 24.3119 5.12913 24.2376C5.56579 24.1634 5.96852 23.9546 6.28129 23.6402C6.4321 23.4857 6.56101 23.3112 6.66439 23.1215L8.68072 25.1426C8.54801 25.305 8.40548 25.4592 8.25393 25.6041C8.01366 25.8444 7.74898 26.0589 7.4642 26.2441C7.12894 26.4673 6.76637 26.6461 6.38546 26.7763C5.29016 27.1494 4.09766 27.1159 3.0249 26.682C2.68745 26.5461 2.36711 26.3708 2.0705 26.1599C2.01001 26.1195 1.94616 26.0723 1.88567 26.0252C1.71977 25.8953 1.56261 25.7547 1.4152 25.6041C1.21712 25.4077 1.03611 25.1947 0.874146 24.9674C0.437889 24.3433 0.154809 23.6247 0.0479442 22.8702C-0.0589207 22.1157 0.013449 21.3466 0.259164 20.6254C0.498287 19.9245 0.893643 19.2874 1.4152 18.7626C1.56652 18.6134 1.72702 18.4739 1.89576 18.3449C2.27044 18.059 2.6863 17.8318 3.12908 17.6712C4.17428 17.2728 5.32476 17.249 6.38546 17.6038C6.95399 17.797 7.48082 18.0964 7.93804 18.4864L8.52278 19.0691C8.56647 19.123 8.61015 19.1735 8.65048 19.2274L11.9606 22.5455L9.96446 24.5464L6.72152 21.2553C6.71119 21.2369 6.70221 21.2177 6.69463 21.198H6.67783L5.64278 20.1605C5.3482 20.0289 5.02775 19.9656 4.70536 19.9755C4.38298 19.9855 4.067 20.0683 3.78103 20.2178L3.76087 20.2447Z" fill="#0066FF"/>
<path d="M8.53298 19.0691L7.94824 18.4863C8.05242 18.5739 8.15324 18.6649 8.25405 18.7625C8.35487 18.8602 8.4456 18.9647 8.53298 19.0691Z" fill="#0066FF"/>
<path d="M25.4801 42.8849C24.8421 43.5271 24.0369 43.9766 23.1563 44.1821C22.2757 44.3876 21.3551 44.3408 20.4998 44.047C20.069 43.901 19.6615 43.6934 19.29 43.4306L18.1003 42.2347C17.8684 41.9092 17.6798 41.5548 17.5391 41.1804C17.1404 40.1252 17.1214 38.9637 17.4854 37.8961C17.6786 37.3192 17.981 36.7851 18.3759 36.323L18.9304 35.7671C18.9942 35.7132 19.0581 35.6594 19.1219 35.6122L22.4825 32.2437L24.4988 34.2648L21.2324 37.539L21.0912 37.6064L21.1282 37.6434L20.12 38.654C19.9932 38.9481 19.934 39.267 19.9468 39.5871C19.9596 39.9072 20.044 40.2204 20.194 40.5033C20.2927 40.6922 20.4196 40.8649 20.5703 41.0153C20.7684 41.2154 21.004 41.3741 21.2635 41.4825C21.5231 41.5908 21.8014 41.6466 22.0826 41.6466C22.3637 41.6466 22.6421 41.5908 22.9017 41.4825C23.1612 41.3741 23.3968 41.2154 23.5948 41.0153C23.7457 40.8608 23.8746 40.6863 23.978 40.4966C24.1898 40.0932 24.2669 39.6324 24.198 39.1819C24.129 38.7313 23.9176 38.3149 23.5948 37.9937C23.4455 37.8418 23.2731 37.7144 23.084 37.6165L25.0332 35.6627L25.1978 35.7975L25.7826 36.3836C26.1729 36.8409 26.4718 37.3693 26.663 37.9399C27.0237 39.0046 27.0047 40.1618 26.6093 41.2141C26.4482 41.6575 26.2216 42.0743 25.9372 42.4503C25.7948 42.6054 25.6421 42.7506 25.4801 42.8849Z" fill="#0066FF"/>
<path d="M18.9334 35.7671L18.3789 36.3229C18.4629 36.2252 18.5503 36.1275 18.6444 36.0332C18.7385 35.9389 18.8359 35.8479 18.9334 35.7671Z" fill="#0066FF"/>
<path d="M19.2922 43.4307C19.06 43.2688 18.8429 43.0862 18.6436 42.885C18.4942 42.7384 18.3561 42.5807 18.2302 42.4134C18.1847 42.3561 18.1421 42.2965 18.1025 42.2349L19.2922 43.4307Z" fill="#0066FF"/>
<path d="M25.7586 36.3395L25.1738 35.7534C25.2805 35.8413 25.3826 35.9346 25.4796 36.033C25.5779 36.1302 25.671 36.2326 25.7586 36.3395Z" fill="#0066FF"/>
<path d="M21.2154 37.498L21.1112 37.6025L21.0742 37.5654L21.2154 37.498Z" fill="#0066FF"/>
<path d="M36.1255 15.8589L36.0449 15.9364L35.9004 16.0611L36.3272 15.6299C36.2655 15.711 36.1981 15.7875 36.1255 15.8589Z" fill="#0066FF"/>
<path d="M32.5037 8.50224L31.6602 7.65674C31.8308 7.7628 31.9887 7.88827 32.1306 8.03065L32.2214 8.12497C32.3271 8.24155 32.4216 8.36787 32.5037 8.50224Z" fill="#0066FF"/>
<path d="M28.4301 11.9611L28.41 11.9409C28.377 11.9135 28.3456 11.8843 28.3159 11.8533L28.2285 11.7422L28.4301 11.9611Z" fill="#0066FF"/>
<path d="M13.9332 10.048L10.082 13.9184L12.0244 15.8655L10.0652 17.8259L8.12613 15.8789L8.17317 15.8318C8.09085 15.7667 8.01231 15.697 7.93793 15.6229C7.5313 15.2089 7.27158 14.6725 7.19872 14.0962C7.12586 13.5198 7.24389 12.9355 7.53467 12.4329L12.3806 7.56874C12.8813 7.27767 13.4633 7.15926 14.0376 7.23167C14.6118 7.30408 15.1465 7.56331 15.5597 7.9696C15.6345 8.04443 15.7041 8.12434 15.768 8.20876V8.19192L21.0374 13.4569L19.1857 15.313L13.9332 10.048Z" fill="#0066FF"/>
</svg>
